<?xml version="1.0" standalone="no"?>
<!DOCTYPE svg PUBLIC "-//W3C//DTD SVG 20010904//EN"
 "http://www.w3.org/TR/2001/REC-SVG-20010904/DTD/svg10.dtd">
<svg version="1.0" xmlns="http://www.w3.org/2000/svg"
 width="512.000000pt" height="512.000000pt" viewBox="0 0 512.000000 512.000000"
 preserveAspectRatio="xMidYMid meet">
<metadata>
Created by potrace 1.16, written by Peter Selinger 2001-2019
</metadata>
<g transform="translate(0.000000,512.000000) scale(0.100000,-0.100000)"
fill="#000000" stroke="none">
<path d="M0 4270 l0 -850 850 0 850 0 0 850 0 850 -850 0 -850 0 0 -850z
m1300 0 l0 -450 -450 0 -450 0 0 450 0 450 450 0 450 0 0 -450z"/>
<path d="M650 4270 l0 -200 200 0 200 0 0 200 0 200 -200 0 -200 0 0 -200z"/>
<path d="M2400 4920 l0 -200 -200 0 -200 0 0 -385 0 -385 200 0 200 0 0 -200
0 -200 -200 0 -200 0 0 -200 0 -200 -400 0 -400 0 0 -200 0 -200 -200 0 -200
0 0 200 0 200 -200 0 -200 0 0 -200 0 -200 -200 0 -200 0 0 -400 0 -400 200 0
200 0 0 400 0 400 200 0 200 0 0 -200 0 -200 195 0 195 0 0 -200 0 -200 200 0
200 0 0 200 0 200 -195 0 -195 0 0 200 0 200 400 0 400 0 0 -400 0 -400 200 0
200 0 0 -195 0 -195 -200 0 -200 0 0 -380 0 -380 200 0 200 0 0 -400 0 -400
200 0 200 0 0 200 0 200 195 0 195 0 0 -200 0 -200 200 0 200 0 0 200 0 200
-195 0 -195 0 0 200 0 200 -400 0 -400 0 0 380 0 380 200 0 200 0 0 -195 0
-195 400 0 400 0 0 -200 0 -200 200 0 200 0 0 -385 0 -385 200 0 200 0 0 185
0 185 160 0 160 0 0 200 0 200 200 0 200 0 0 400 0 400 -200 0 -200 0 0 -400
0 -400 -360 0 -360 0 0 200 0 200 200 0 200 0 0 200 0 200 -200 0 -200 0 0
-200 0 -200 -200 0 -200 0 0 200 0 200 -400 0 -400 0 0 195 0 195 -200 0 -200
0 0 395 0 395 -200 0 -200 0 0 200 0 200 400 0 400 0 0 -400 0 -400 200 0 200
0 0 -200 0 -200 200 0 200 0 0 200 0 200 200 0 200 0 0 -195 0 -195 560 0 560
0 0 400 0 400 -200 0 -200 0 0 195 0 195 -365 0 -365 0 0 -200 0 -200 -195 0
-195 0 0 -200 0 -200 -200 0 -200 0 0 400 0 400 -200 0 -200 0 0 400 0 400
200 0 200 0 0 200 0 200 -200 0 -200 0 0 -200 0 -200 -200 0 -200 0 0 385 0
385 200 0 200 0 0 200 0 200 -200 0 -200 0 0 -200z m2320 -2365 l0 -195 -360
0 -360 0 0 195 0 195 360 0 360 0 0 -195z"/>
<path d="M3420 4270 l0 -850 850 0 850 0 0 850 0 850 -850 0 -850 0 0 -850z
m1300 0 l0 -450 -450 0 -450 0 0 450 0 450 450 0 450 0 0 -450z"/>
<path d="M4070 4270 l0 -200 200 0 200 0 0 200 0 200 -200 0 -200 0 0 -200z"/>
<path d="M0 850 l0 -850 850 0 850 0 0 850 0 850 -850 0 -850 0 0 -850z m1300
0 l0 -450 -450 0 -450 0 0 450 0 450 450 0 450 0 0 -450z"/>
<path d="M650 850 l0 -200 200 0 200 0 0 200 0 200 -200 0 -200 0 0 -200z"/>
</g>
</svg>
