<?xml version="1.0" standalone="no"?>
<!DOCTYPE svg PUBLIC "-//W3C//DTD SVG 20010904//EN"
 "http://www.w3.org/TR/2001/REC-SVG-20010904/DTD/svg10.dtd">
<svg version="1.0" xmlns="http://www.w3.org/2000/svg"
 width="512.000000pt" height="512.000000pt" viewBox="0 0 512.000000 512.000000"
 preserveAspectRatio="xMidYMid meet">
<metadata>
Created by potrace 1.16, written by Peter Selinger 2001-2019
</metadata>
<g transform="translate(0.000000,512.000000) scale(0.100000,-0.100000)"
fill="#000000" stroke="none">
<path d="M3720 5100 c-222 -58 -415 -213 -515 -415 -63 -126 -85 -221 -85
-365 0 -146 22 -240 87 -370 40 -81 62 -109 148 -195 86 -86 114 -108 195
-148 130 -65 224 -87 370 -87 132 0 233 21 338 70 l62 29 0 -50 0 -49 200 0
200 0 0 800 0 800 -200 0 -200 0 0 -49 0 -50 -62 29 c-152 71 -374 92 -538 50z
m363 -423 c74 -34 160 -119 195 -194 24 -52 27 -70 27 -163 0 -93 -3 -111 -27
-163 -35 -74 -121 -160 -195 -195 -52 -24 -70 -27 -163 -27 -93 0 -111 3 -163
27 -74 35 -160 121 -195 195 -24 52 -27 70 -27 163 0 93 3 111 26 160 48 101
130 176 232 212 78 28 213 21 290 -15z"/>
<path d="M1212 3583 c-5 -10 -222 -550 -481 -1200 l-473 -1183 -129 0 -129 0
0 -200 0 -200 500 0 500 0 0 200 0 200 -149 0 -149 0 80 200 80 200 533 0 532
0 78 -187 c43 -104 80 -194 82 -200 4 -10 -28 -13 -141 -13 l-146 0 0 -200 0
-200 500 0 500 0 0 200 0 199 -131 3 -131 3 -498 1195 -498 1195 -160 3 c-146
2 -162 1 -170 -15z m346 -1098 c94 -225 178 -427 187 -447 l15 -38 -369 0
-369 0 180 450 c99 248 182 450 183 448 1 -2 79 -187 173 -413z"/>
<path d="M3120 2920 l0 -200 1000 0 1000 0 0 200 0 200 -1000 0 -1000 0 0
-200z"/>
<path d="M3620 1798 c-272 -363 -496 -665 -498 -669 -2 -5 176 -9 397 -9 l401
0 0 -560 0 -560 200 0 200 0 0 560 0 560 401 0 c221 0 399 4 397 9 -5 14 -993
1330 -998 1330 -3 0 -228 -297 -500 -661z m599 -153 l90 -120 -95 -3 c-52 -1
-136 -1 -188 0 l-95 3 92 123 c50 67 95 121 99 120 4 -2 47 -57 97 -123z"/>
<path d="M0 200 l0 -200 1400 0 1400 0 0 200 0 200 -1400 0 -1400 0 0 -200z"/>
</g>
</svg>
